<?xml version="1.0" standalone="no"?><!DOCTYPE svg PUBLIC "-//W3C//DTD SVG 1.1//EN" "http://www.w3.org/Graphics/SVG/1.1/DTD/svg11.dtd"><svg t="1714914151637" class="icon" viewBox="0 0 1024 1024" version="1.1" xmlns="http://www.w3.org/2000/svg" p-id="4352" xmlns:xlink="http://www.w3.org/1999/xlink" width="200" height="200"><path d="M512 20.48c271.36 0 491.52 220.16 491.52 491.52S783.36 1003.52 512 1003.52 20.48 783.36 20.48 512 240.64 20.48 512 20.48m0-20.48C229.376 0 0 229.376 0 512s229.376 512 512 512 512-229.376 512-512S794.624 0 512 0z" fill="#555555" p-id="4353"></path><path d="M530.432 232.448L256 454.656V706.56h143.36V524.288l131.072-102.4 130.048 102.4V706.56h146.432V454.656z" fill="#555555" p-id="4354"></path><path d="M498.688 622.592h61.44v112.64h-61.44z" fill="#555555" p-id="4355"></path></svg>